<?xml version="1.0" standalone="no"?>
<!DOCTYPE svg PUBLIC "-//W3C//DTD SVG 20010904//EN"
 "http://www.w3.org/TR/2001/REC-SVG-20010904/DTD/svg10.dtd">
<svg version="1.0" xmlns="http://www.w3.org/2000/svg"
 width="534.000000pt" height="534.000000pt" viewBox="0 0 534.000000 534.000000"
 preserveAspectRatio="xMidYMid meet">
<metadata>
Created by potrace 1.11, written by Peter Selinger 2001-2013
</metadata>
<g transform="translate(0.000000,534.000000) scale(0.100000,-0.100000)"
fill="#000000" stroke="none">
<path d="M2557 5334 c-1 -1 -47 -5 -102 -8 -55 -4 -109 -9 -120 -11 -11 -2
-38 -7 -60 -9 -148 -20 -386 -80 -540 -138 -507 -190 -953 -538 -1268 -990
-37 -53 -67 -99 -67 -102 0 -3 -16 -30 -35 -60 -75 -117 -184 -359 -238 -531
-35 -108 -84 -306 -91 -367 -13 -101 -19 -146 -23 -163 -10 -39 -11 -471 -2
-555 113 -1036 781 -1891 1757 -2246 88 -32 282 -87 346 -98 16 -3 52 -10 80
-16 134 -27 298 -38 516 -35 124 1 236 5 250 8 14 3 48 8 75 12 379 46 812
214 1145 444 189 130 421 343 546 501 32 41 62 77 65 80 13 12 139 202 185
280 163 278 292 646 329 942 4 28 9 60 11 72 16 79 22 358 11 516 -7 106 -10
128 -27 235 -18 106 -20 118 -46 224 -86 350 -252 689 -485 991 -68 89 -296
326 -384 399 -105 88 -274 207 -369 261 -376 210 -714 318 -1123 356 -64 6
-331 12 -336 8z m1946 -976 c22 -24 65 -74 96 -113 31 -38 59 -72 62 -75 10
-8 142 -209 172 -262 107 -187 206 -432 256 -637 31 -124 38 -162 56 -291 24
-171 24 -455 0 -628 -2 -18 -7 -52 -10 -75 -3 -23 -13 -75 -21 -115 l-16 -72
-37 22 c-20 12 -106 68 -191 124 -367 240 -456 297 -494 322 l-41 26 -560 1
c-484 1 -560 3 -556 15 2 8 3 52 4 97 l0 83 108 106 c66 64 109 113 109 125 0
28 -13 50 -94 159 -117 156 -158 200 -187 200 -29 0 -22 16 16 40 45 28 97 93
118 148 19 48 22 156 6 217 -41 159 -170 265 -324 266 -145 2 -301 -106 -310
-214 -1 -25 -8 -54 -15 -66 -27 -52 -15 -194 22 -266 14 -26 14 -34 -3 -82 -9
-28 -20 -69 -23 -89 -4 -20 -9 -40 -12 -45 -12 -20 -19 -68 -19 -137 0 -66 3
-76 24 -93 42 -34 72 -22 128 56 l22 30 -9 -41 c-13 -57 -18 -132 -19 -256 -1
-79 -4 -108 -13 -108 -30 0 -142 -63 -188 -106 -75 -70 -90 -109 -90 -235 l0
-106 -60 -59 c-33 -32 -60 -67 -60 -76 0 -10 10 -28 21 -39 18 -18 29 -21 70
-16 57 7 123 35 160 69 27 24 37 70 44 203 4 86 4 85 15 85 6 0 7 -15 3 -37
-7 -41 -7 -122 0 -218 l4 -59 -58 -42 c-40 -30 -56 -48 -54 -61 2 -10 4 -21 4
-25 1 -11 43 -31 71 -34 14 -1 27 -2 30 -3 3 -1 5 -407 5 -902 l0 -902 -130 6
c-71 4 -141 9 -155 11 -14 2 -43 7 -65 10 -181 24 -378 76 -558 147 -320 128
-595 308 -838 549 -141 140 -186 193 -276 318 -63 88 -177 272 -171 276 2 2
156 115 343 251 187 137 457 335 600 440 143 105 431 316 640 469 209 153 407
299 440 324 33 25 61 46 63 47 1 1 -4 20 -12 43 -8 22 -15 56 -14 74 0 36 55
284 67 307 5 7 -1 36 -12 65 -26 66 -32 197 -12 263 8 26 15 61 15 76 0 43 33
97 91 153 175 165 436 159 591 -14 69 -76 116 -205 114 -309 -1 -33 3 -49 9
-44 6 5 87 64 180 132 94 68 175 128 182 134 6 5 89 66 184 135 94 69 246 180
337 248 92 67 171 122 175 122 5 0 27 -19 50 -42z m-1683 -1021 c0 -2 -14 -16
-31 -33 l-31 -29 7 35 c10 48 13 52 36 40 10 -6 19 -12 19 -13z m440 -269 c25
-41 25 -42 -4 -61 l-23 -16 1 55 c0 30 2 54 4 54 1 0 11 -15 22 -32z"/>
</g>
</svg>
