<svg id="logo" xmlns="http://www.w3.org/2000/svg" viewBox="0 0 992 992"><title>safari-pinned-tab</title><path d="M512,16C238.06677,16,16,238.06677,16,512s222.06677,496,496,496,496-222.06677,496-496S785.93323,16,512,16Zm26.596,376.93622c-3.64307,3.4906-7.18006,7.07941-10.669,10.71252.86255-3.78051,1.71637-7.56347,2.6106-11.33642.48938-2.065,1.09185-4.1803,1.71325-6.32379a46.31376,46.31376,0,0,0,8.55085,4.76062C540.04462,391.51605,539.3028,392.25885,538.596,392.93622ZM812,527H609.99994c1.82623-10.335,2.07623-21.06653,1.81012-31.23663-.03876-1.48029-.08685-2.98554-.14465-4.507,12.34777-10.80231,23.4945-23.63843,35.82342-34.034,3.69965-3.11957,4.57941-10.227,1.83466-14.21844-10.0365-14.59558-20.64234-29.07062-31.84027-42.79859-5.02186-6.15637-11.08893-15.38147-19.03455-14.68365a26.14613,26.14613,0,0,0-2.60315-2.80811,84.75686,84.75686,0,0,0,11.56537-7.72625c20.51715-16.486,24.31018-40.13373,17.423-64.59143-6.293-22.34791-22.439-39.93537-45.78882-44.57081-26.37115-5.2351-50.03173,6.29462-65.02008,28.13373-2.44976,3.5694-2.70758,8.65326-1.321,12.85272a60.53894,60.53894,0,0,0-5.94629,34.06311,70.12088,70.12088,0,0,0,9.343,27.40888c-4.57642,8.806-6.23828,20.3338-8.35541,28.66711-3.67029,14.44727-10.38244,29.86481-2.9284,44.02607,4.14587,7.87658,14.11486,6.02917,18.647,0q5.82843-7.75342,11.84918-15.36127c-8.24872,25.32654-5.67077,54.2091-6.22424,72.35455-.02307.75611-.3114,1.44721-.36676,2.15259-30.41413,8.798-45.23627,26.57275-50.60828,40.676-2.28882,6.00855-1.41534,11.39277-1.04706,17.57209a107.76655,107.76655,0,0,1,.04236,12.05963c-.10553,2.01025-.34527,4.00592-.48486,6.012-.046.66089.31134,3.939-.01874,4.33917-4.882,5.97089-10.29944,12.10413-16.47913,16.57557-7.42962,5.376-5.3446,17.89831,4.87354,17.99377a54.2606,54.2606,0,0,0,38.50964-15.71606c2.81849-2.73011,2.42652-6.08783,1.57434-9.51911-.44592-1.79553-.92022-3.823.03272-5.517,1.62372-2.88635,2.74292-4.53375,2.73254-8.052q-.023-7.7645-.0459-15.52911c-.01568-5.32306.85669-9.79706,4.19666-13.26837v9.89379c-1.69629,5.041-1.84479,10.62952-1.92255,15.98914A97.35489,97.35489,0,0,0,512,595.32672V608.4248c-1.16376.74677-2.43146,1.3844-3.16986,1.91895q-4.032,2.91861-7.91766,6.03235-2.49611,1.36853-5.004,2.72546c-4.21521,2.26886-4.90393,7.63959-2.58466,11.544,3.72522,6.27154,12.14813,6.0871,18.67615,5.54858V962c-171.26489,0-320.17908-95.67822-396.21924-236.49652L484.95154,454.51642c-.48029-.76563-.94391-1.5473-1.37219-2.361-10.69532-20.3191-5.04529-40.07642-.91987-54.50269.66877-2.33862,1.30042-4.54755,1.82477-6.61163.42835-1.68592.88147-3.74835,1.361-5.93189,1.0393-4.7315,2.22509-10.1297,3.97985-15.65924a93.54842,93.54842,0,0,1-6.90387-25.77832,84.32354,84.32354,0,0,1,4.9834-40.00366,37.65888,37.65888,0,0,1,6.33234-23.28992c17.36114-25.29644,43.7121-39.80475,72.29633-39.80475a88.46832,88.46832,0,0,1,17.18511,1.71125c31.08582,6.17108,55.09211,29.20141,64.217,61.606a102.92881,102.92881,0,0,1,4.052,28.01435L834.36737,198.0304A450.76626,450.76626,0,0,1,949.71478,616.83649ZM613.46472,430.53247c3.3208,5.4018,6.68591,10.77783,10.14288,16.092-3.64038,2.97846-7.36016,6.03888-11.04046,9.20166.00152-.45434.007-.90948-.00452-1.361a14.15287,14.15287,0,0,0,1.19733-4.79175A108.58839,108.58839,0,0,0,613.46472,430.53247Z" transform="translate(-16 -16)"/></svg>