<svg id="logo" xmlns="http://www.w3.org/2000/svg" viewBox="0 0 992 992"><defs><style>.cls-1{fill:#fff;}.cls-2{fill:#212121;}.cls-3{fill:#ff8900;}.cls-4{fill:#1aadff;}</style></defs><title>logomergedrev</title><circle id="white" class="cls-1" cx="496" cy="496" r="450"/><path class="cls-2" d="M512,16C238.06676,16,16,238.06676,16,512s222.06676,496,496,496,496-222.06676,496-496S785.93324,16,512,16ZM812,527H512V962C263.47186,962,62,760.52814,62,512S263.47186,62,512,62,962,263.47186,962,512a451.1873,451.1873,0,0,1-12.28522,104.83649Z" transform="translate(-16 -16)"/><path id="orange" class="cls-3" d="M483.57935,452.15546c-10.69532-20.3191-5.04529-40.07642-.91987-54.50269.66877-2.33862,1.30042-4.54755,1.82477-6.61163.42835-1.68592.88147-3.74835,1.361-5.93189,1.0393-4.7315,2.22509-10.1297,3.97985-15.65924a93.54842,93.54842,0,0,1-6.90387-25.77832,84.32354,84.32354,0,0,1,4.9834-40.00366,37.65888,37.65888,0,0,1,6.33234-23.28992c17.36114-25.29644,43.7121-39.80475,72.29633-39.80475a88.46832,88.46832,0,0,1,17.18511,1.71125c31.08582,6.17108,55.09211,29.20141,64.217,61.606a102.92881,102.92881,0,0,1,4.052,28.01435L834.36737,198.0304A448.65557,448.65557,0,0,0,512,62C263.47186,62,62,263.47186,62,512a447.99652,447.99652,0,0,0,53.78076,213.50348L484.95154,454.51642C484.47125,453.75079,484.00763,452.96912,483.57935,452.15546Z" transform="translate(-16 -16)"/><path id="guy" class="cls-4" d="M649.32351,443.004c-10.03653-14.59559-20.64233-29.07062-31.84029-42.79861-5.02183-6.15634-11.08892-15.38144-19.03455-14.68363a26.14725,26.14725,0,0,0-2.60317-2.80811,84.75329,84.75329,0,0,0,11.56538-7.72625c20.51717-16.486,24.31017-40.13376,17.423-64.5914-6.293-22.34791-22.43895-39.93537-45.7888-44.57084-26.37116-5.23512-50.03172,6.29463-65.02005,28.13373-2.44978,3.5694-2.70761,8.65329-1.321,12.85271a60.53883,60.53883,0,0,0-5.94633,34.0631,70.12193,70.12193,0,0,0,9.343,27.40893c-4.5764,8.806-6.23828,20.33379-8.35543,28.6671-3.67027,14.44727-10.38239,29.8648-2.9284,44.026,4.14589,7.87664,14.11492,6.02922,18.64707,0q5.82844-7.7534,11.84917-15.36128c-8.24874,25.32656-5.67079,54.20911-6.22422,72.3546-.02307.75612-.31145,1.44718-.36677,2.15258-30.41411,8.798-45.2363,26.57274-50.6083,40.67594-2.28881,6.00858-1.41531,11.39277-1.047,17.57208a107.76457,107.76457,0,0,1,.04237,12.05965c-.10556,2.01027-.34529,4.00591-.48489,6.01206-.046.66087.31135,3.939-.01875,4.33911-4.882,5.9709-10.29942,12.10418-16.47911,16.57558-7.42961,5.376-5.34462,17.89835,4.87351,17.99379a54.26057,54.26057,0,0,0,38.50966-15.716c2.81847-2.73016,2.42655-6.08788,1.57436-9.51912-.44595-1.79554-.92025-3.823.03271-5.517,1.6237-2.88637,2.74291-4.53374,2.73252-8.052l-.04585-15.52913c-.02014-6.8224,1.399-12.258,7.63286-15.963,3.93511-2.33873,8.444-3.50488,12.60686-5.4108a5.63641,5.63641,0,0,1,1.80983-.58765c-1.75088,1.47069-3.98823,2.54489-5.827,4.0331a56.33318,56.33318,0,0,0-8.28424,7.678c-5.29265,6.42222-5.54868,14.89922-5.66425,22.86492-.1381,9.529.78687,19.93843,3.94694,28.98211a7.34373,7.34373,0,0,1,.61043,2.72767c-.10772,2.206-4.20364,3.84288-5.80467,5.00186q-4.032,2.91865-7.9177,6.0324-2.49606,1.36848-5.00392,2.72543c-4.21527,2.26884-4.904,7.63962-2.5847,11.544,3.9445,6.64067,13.15881,6.04337,19.81046,5.4514,8.62844-.76784,26.42985-4.268,29.46973-14.20735a9.82738,9.82738,0,0,0,.97274-2.60207c.43048-1.93929-.64975-4.56717.25043-6.36925.86193-1.72551,3.14916-2.74126,4.10211-4.70014,2.57354-5.29029.88205-10.73569.18887-16.20207-.74606-5.88341-.11151-11.96371.40042-17.8382a3.08156,3.08156,0,0,1,.4269-1.56735,3.00579,3.00579,0,0,1,1.34308-.8889c7.76676-3.2665,15.7201-3.72509,23.7886-5.40037,9.90021-2.05612,20.419-5.84583,26.73362-14.20408a26.3691,26.3691,0,0,0,2.58348-4.17711c7.85975-15.84533,8.86957-34.83225,8.41581-52.17671-.03882-1.48028-.08691-2.98549-.14467-4.50693,12.34775-10.80231,23.49452-23.63843,35.82343-34.034C651.18846,454.10284,652.06825,446.99546,649.32351,443.004ZM538.596,392.93626c-3.64309,3.49055-7.18,7.07935-10.669,10.7125.86254-3.78053,1.71635-7.56349,2.61058-11.33643.48939-2.065,1.09185-4.18029,1.71325-6.32379a46.31712,46.31712,0,0,0,8.55082,4.76063C540.04464,391.51608,539.30277,392.25889,538.596,392.93626Zm73.97119,62.88987c.0015-.45433.00694-.90951-.0045-1.361a14.154,14.154,0,0,0,1.19733-4.79175,108.59227,108.59227,0,0,0-.29523-19.14087c3.32076,5.40181,6.68586,10.77784,10.14285,16.092C619.96723,449.60294,616.24745,452.66334,612.56715,455.82613Z" transform="translate(-16 -16)"/></svg>