<svg id="logo" xmlns="http://www.w3.org/2000/svg" viewBox="0 0 128 128"><defs><style>.cls-1{fill:#fff;}.cls-2{fill:#212121;}.cls-3{fill:#ff8900;}.cls-4{fill:#1aadff;}</style></defs><title>logo</title><circle class="cls-1" cx="64" cy="64" r="60"/><g id="dark"><path class="cls-2" d="M512,448a64,64,0,1,0,64,64A64,64,0,0,0,512,448Zm40,66H512v58a59.93886,59.93886,0,1,1,58.362-46.0218Z" transform="translate(-448 -448)"/></g><path id="orange" class="cls-3" d="M509.39045,503.39968c-1.17688-2.23585-.53574-4.47788-.02059-6.27936.092-.32162.17885-.62541.25366-.91987.06246-.24584.12514-.53116.19148-.83323a18.50918,18.50918,0,0,1,.66116-2.44242,11.15969,11.15969,0,0,1-1.02907-3.524,9.91416,9.91416,0,0,1,.6948-4.97575,3.72181,3.72181,0,0,1,.589-2.55353,10.35,10.35,0,0,1,8.54018-4.72846,10.4608,10.4608,0,0,1,2.03171.20264,9.85213,9.85213,0,0,1,7.53849,7.26774,11.84548,11.84548,0,0,1,.44206,4.388l25.69895-18.86411a60.00827,60.00827,0,0,0-95.81155,70.32974l50.30155-36.92348C509.44437,503.49627,509.41637,503.44893,509.39045,503.39968Z" transform="translate(-448 -448)"/><path id="guy" class="cls-4" d="M530.3098,502.80053c-1.3382-1.94608-2.75231-3.87608-4.24537-5.70648-.66958-.82085-1.47852-2.05086-2.53794-1.95782a3.48764,3.48764,0,0,0-.34709-.37441,11.30073,11.30073,0,0,0,1.54205-1.03017c2.73562-2.19814,3.24136-5.35117,2.32307-8.61219a7.99485,7.99485,0,0,0-6.10517-5.94278,8.32984,8.32984,0,0,0-8.66934,3.75117,2.00853,2.00853,0,0,0-.17613,1.71369,8.07181,8.07181,0,0,0-.79285,4.54175,9.34959,9.34959,0,0,0,1.24574,3.65452,17.8216,17.8216,0,0,0-1.11406,3.82228c-.48937,1.92631-1.38432,3.982-.39045,5.87014a1.45882,1.45882,0,0,0,2.48627,0q.77713-1.03379,1.57989-2.04817c-1.09983,3.37688-.7561,7.22788-.82989,9.64728-.00308.10082-.04153.193-.04891.287-4.05521,1.17308-6.0315,3.543-6.74777,5.42346a5.23929,5.23929,0,0,0-.13961,2.34295,14.36807,14.36807,0,0,1,.00566,1.60795c-.01408.268-.046.53412-.06466.80161a2.935,2.935,0,0,1-.0025.57854,12.32723,12.32723,0,0,1-2.19721,2.21008,1.299,1.299,0,0,0,.6498,2.39917,7.23473,7.23473,0,0,0,5.13462-2.09547,1.20081,1.20081,0,0,0,.20991-1.26921,1.00153,1.00153,0,0,1,.00437-.73561,1.8794,1.8794,0,0,0,.36433-1.0736l-.00611-2.07055a2.16611,2.16611,0,0,1,1.01771-2.12839,17.16935,17.16935,0,0,1,1.68092-.72144.75168.75168,0,0,1,.24131-.07836c-.23345.1961-.53176.33932-.77693.53775a7.51141,7.51141,0,0,0-1.10457,1.02373,4.70474,4.70474,0,0,0-.75523,3.04865,11.4901,11.4901,0,0,0,.52626,3.86428.97929.97929,0,0,1,.08139.36369c-.01436.29414-.56048.51239-.774.66692q-.5376.38915-1.05569.80432-.33281.18246-.66719.36339a1.09191,1.09191,0,0,0-.34462,1.5392c.52593.88542,1.7545.80578,2.64139.72685,1.15046-.10238,3.524-.56907,3.9293-1.89431a1.31079,1.31079,0,0,0,.1297-.34694c.05739-.25858-.08664-.609.03339-.84924.11492-.23006.41988-.3655.54695-.62668a3.65164,3.65164,0,0,0,.02518-2.16028,11.27963,11.27963,0,0,1,.05339-2.37843.41087.41087,0,0,1,.05692-.209.40073.40073,0,0,1,.17907-.11851,16.38015,16.38015,0,0,1,3.17182-.72005,5.80087,5.80087,0,0,0,3.56448-1.89388,3.51586,3.51586,0,0,0,.34446-.557,14.90932,14.90932,0,0,0,1.12211-6.95689c-.00517-.19737-.01159-.39807-.01929-.60093,1.64637-1.44031,3.13261-3.15179,4.77646-4.53787A1.56726,1.56726,0,0,0,530.3098,502.80053Zm-14.76367-6.67569c-.48575.4654-.95734.94391-1.42253,1.42833.115-.50407.22884-1.00847.34807-1.51153.06525-.27533.14558-.55737.22844-.84317a6.1749,6.1749,0,0,0,1.1401.63475C515.73929,495.93548,515.64037,496.03452,515.54613,496.12484Zm9.86282,8.38531c.0002-.06058.00093-.12127-.0006-.18147a1.88724,1.88724,0,0,0,.15965-.6389,14.47967,14.47967,0,0,0-.03937-2.55212c.44277.72025.89145,1.437,1.35238,2.1456C526.39563,503.68039,525.89966,504.08845,525.409,504.51015Z" transform="translate(-448 -448)"/></svg>